<mxfile host="app.diagrams.net" modified="2023-03-09T09:41:05.583Z" agent="5.0 (Windows NT 6.1; Win64; x64) AppleWebKit/537.36 (KHTML, like Gecko) Chrome/109.0.0.0 Safari/537.36" etag="wPs337LFFcgZiQrQoTb8" version="20.8.23" type="github">
  <diagram name="第 1 页" id="9pmo1v1dX5s4VO7Nb7Sy">
    <mxGraphModel dx="875" dy="1626" grid="1" gridSize="10" guides="1" tooltips="1" connect="1" arrows="1" fold="1" page="1" pageScale="1" pageWidth="827" pageHeight="1169" math="0" shadow="0">
      <root>
        <mxCell id="0" />
        <mxCell id="1" parent="0" />
        <mxCell id="Ivxdmaws9GKIMjuXmD1E-1" value="" style="rounded=0;whiteSpace=wrap;html=1;" vertex="1" parent="1">
          <mxGeometry x="200" y="160" width="120" height="40" as="geometry" />
        </mxCell>
        <mxCell id="Ivxdmaws9GKIMjuXmD1E-2" value="" style="endArrow=none;dashed=1;html=1;rounded=0;" edge="1" parent="1">
          <mxGeometry width="50" height="50" relative="1" as="geometry">
            <mxPoint x="330" y="200" as="sourcePoint" />
            <mxPoint x="480" y="200" as="targetPoint" />
          </mxGeometry>
        </mxCell>
        <mxCell id="Ivxdmaws9GKIMjuXmD1E-3" value="0xffff800000000000" style="text;html=1;strokeColor=none;fillColor=none;align=center;verticalAlign=middle;whiteSpace=wrap;rounded=0;fontFamily=Lucida Console;" vertex="1" parent="1">
          <mxGeometry x="330" y="180" width="146" height="20" as="geometry" />
        </mxCell>
        <mxCell id="Ivxdmaws9GKIMjuXmD1E-4" value="" style="rounded=0;whiteSpace=wrap;html=1;" vertex="1" parent="1">
          <mxGeometry x="200" y="119.17" width="120" height="40" as="geometry" />
        </mxCell>
        <mxCell id="Ivxdmaws9GKIMjuXmD1E-5" value="" style="endArrow=none;dashed=1;html=1;rounded=0;" edge="1" parent="1">
          <mxGeometry width="50" height="50" relative="1" as="geometry">
            <mxPoint x="330" y="159.17000000000002" as="sourcePoint" />
            <mxPoint x="480" y="159.17000000000002" as="targetPoint" />
          </mxGeometry>
        </mxCell>
        <mxCell id="Ivxdmaws9GKIMjuXmD1E-6" value="0xffff8e8940000000" style="text;html=1;strokeColor=none;fillColor=none;align=center;verticalAlign=middle;whiteSpace=wrap;rounded=0;fontFamily=Lucida Console;" vertex="1" parent="1">
          <mxGeometry x="330" y="139.17000000000002" width="146" height="20" as="geometry" />
        </mxCell>
        <mxCell id="Ivxdmaws9GKIMjuXmD1E-7" value="PAGE_OFFSET" style="text;html=1;strokeColor=none;fillColor=none;align=center;verticalAlign=middle;whiteSpace=wrap;rounded=0;fontFamily=Lucida Console;" vertex="1" parent="1">
          <mxGeometry x="90" y="150" width="90" height="19.17" as="geometry" />
        </mxCell>
        <mxCell id="Ivxdmaws9GKIMjuXmD1E-8" value="内核虚拟地址空间起始地址" style="text;html=1;strokeColor=none;fillColor=none;align=center;verticalAlign=middle;whiteSpace=wrap;rounded=0;fontFamily=Lucida Console;" vertex="1" parent="1">
          <mxGeometry x="30" y="190" width="150" height="20" as="geometry" />
        </mxCell>
        <mxCell id="Ivxdmaws9GKIMjuXmD1E-9" value="vmalloc（32TB）" style="rounded=0;whiteSpace=wrap;html=1;" vertex="1" parent="1">
          <mxGeometry x="200" y="78.34000000000002" width="120" height="40" as="geometry" />
        </mxCell>
        <mxCell id="Ivxdmaws9GKIMjuXmD1E-10" value="" style="endArrow=none;dashed=1;html=1;rounded=0;" edge="1" parent="1">
          <mxGeometry width="50" height="50" relative="1" as="geometry">
            <mxPoint x="330" y="118.34000000000002" as="sourcePoint" />
            <mxPoint x="480" y="118.34000000000002" as="targetPoint" />
          </mxGeometry>
        </mxCell>
        <mxCell id="Ivxdmaws9GKIMjuXmD1E-11" value="0xffffa48100000000" style="text;html=1;strokeColor=none;fillColor=none;align=center;verticalAlign=middle;whiteSpace=wrap;rounded=0;fontFamily=Lucida Console;" vertex="1" parent="1">
          <mxGeometry x="330" y="98.34000000000002" width="146" height="20" as="geometry" />
        </mxCell>
        <mxCell id="Ivxdmaws9GKIMjuXmD1E-12" value="VMALLOC_START" style="text;html=1;strokeColor=none;fillColor=none;align=center;verticalAlign=middle;whiteSpace=wrap;rounded=0;fontFamily=Lucida Console;" vertex="1" parent="1">
          <mxGeometry x="80" y="110" width="90" height="19.17" as="geometry" />
        </mxCell>
        <mxCell id="Ivxdmaws9GKIMjuXmD1E-13" value="VMALLOC_END" style="text;html=1;strokeColor=none;fillColor=none;align=center;verticalAlign=middle;whiteSpace=wrap;rounded=0;fontFamily=Lucida Console;" vertex="1" parent="1">
          <mxGeometry x="90" y="70" width="80" height="19.17" as="geometry" />
        </mxCell>
        <mxCell id="Ivxdmaws9GKIMjuXmD1E-14" value="" style="rounded=0;whiteSpace=wrap;html=1;" vertex="1" parent="1">
          <mxGeometry x="200" y="37.51000000000002" width="120" height="40" as="geometry" />
        </mxCell>
        <mxCell id="Ivxdmaws9GKIMjuXmD1E-15" value="" style="endArrow=none;dashed=1;html=1;rounded=0;" edge="1" parent="1">
          <mxGeometry width="50" height="50" relative="1" as="geometry">
            <mxPoint x="330" y="77.51000000000003" as="sourcePoint" />
            <mxPoint x="480" y="77.51000000000003" as="targetPoint" />
          </mxGeometry>
        </mxCell>
        <mxCell id="Ivxdmaws9GKIMjuXmD1E-16" value="0xffffc480ffffffff" style="text;html=1;strokeColor=none;fillColor=none;align=center;verticalAlign=middle;whiteSpace=wrap;rounded=0;fontFamily=Lucida Console;" vertex="1" parent="1">
          <mxGeometry x="330" y="57.51000000000002" width="146" height="20" as="geometry" />
        </mxCell>
        <mxCell id="Ivxdmaws9GKIMjuXmD1E-17" value="" style="rounded=0;whiteSpace=wrap;html=1;" vertex="1" parent="1">
          <mxGeometry x="200" y="-3.319999999999979" width="120" height="40" as="geometry" />
        </mxCell>
        <mxCell id="Ivxdmaws9GKIMjuXmD1E-18" value="" style="endArrow=none;dashed=1;html=1;rounded=0;" edge="1" parent="1">
          <mxGeometry width="50" height="50" relative="1" as="geometry">
            <mxPoint x="330" y="36.680000000000035" as="sourcePoint" />
            <mxPoint x="480" y="36.680000000000035" as="targetPoint" />
          </mxGeometry>
        </mxCell>
        <mxCell id="Ivxdmaws9GKIMjuXmD1E-19" value="0xffffd271c0000000" style="text;html=1;strokeColor=none;fillColor=none;align=center;verticalAlign=middle;whiteSpace=wrap;rounded=0;fontFamily=Lucida Console;" vertex="1" parent="1">
          <mxGeometry x="330" y="16.68000000000002" width="146" height="20" as="geometry" />
        </mxCell>
        <mxCell id="Ivxdmaws9GKIMjuXmD1E-20" value="VMEMMAP_START" style="text;html=1;strokeColor=none;fillColor=none;align=center;verticalAlign=middle;whiteSpace=wrap;rounded=0;fontFamily=Lucida Console;" vertex="1" parent="1">
          <mxGeometry x="80" y="30" width="90" height="19.17" as="geometry" />
        </mxCell>
        <mxCell id="Ivxdmaws9GKIMjuXmD1E-21" value="" style="rounded=0;whiteSpace=wrap;html=1;" vertex="1" parent="1">
          <mxGeometry x="200" y="-20" width="120" height="15.85" as="geometry" />
        </mxCell>
        <mxCell id="Ivxdmaws9GKIMjuXmD1E-22" value="" style="endArrow=none;dashed=1;html=1;rounded=0;" edge="1" parent="1">
          <mxGeometry width="50" height="50" relative="1" as="geometry">
            <mxPoint x="330" y="-4.149999999999963" as="sourcePoint" />
            <mxPoint x="480" y="-4.149999999999963" as="targetPoint" />
          </mxGeometry>
        </mxCell>
        <mxCell id="Ivxdmaws9GKIMjuXmD1E-23" value="0xffffffff80000000" style="text;html=1;strokeColor=none;fillColor=none;align=center;verticalAlign=middle;whiteSpace=wrap;rounded=0;fontFamily=Lucida Console;" vertex="1" parent="1">
          <mxGeometry x="330" y="-24.149999999999977" width="146" height="20" as="geometry" />
        </mxCell>
        <mxCell id="Ivxdmaws9GKIMjuXmD1E-24" value="__START_KERNEL_map" style="text;html=1;strokeColor=none;fillColor=none;align=center;verticalAlign=middle;whiteSpace=wrap;rounded=0;fontFamily=Lucida Console;" vertex="1" parent="1">
          <mxGeometry x="40" y="-10" width="130" height="19.17" as="geometry" />
        </mxCell>
        <mxCell id="Ivxdmaws9GKIMjuXmD1E-77" value="" style="group" vertex="1" connectable="0" parent="1">
          <mxGeometry x="200" y="-266" width="570" height="320" as="geometry" />
        </mxCell>
        <mxCell id="Ivxdmaws9GKIMjuXmD1E-41" value="&lt;font face=&quot;Lucida Console&quot;&gt;.text.*&lt;/font&gt;" style="rounded=0;whiteSpace=wrap;html=1;fillColor=#dae8fc;strokeColor=#6c8ebf;" vertex="1" parent="Ivxdmaws9GKIMjuXmD1E-77">
          <mxGeometry y="225.82999999999998" width="120" height="20" as="geometry" />
        </mxCell>
        <mxCell id="Ivxdmaws9GKIMjuXmD1E-44" value=".rodata.*" style="rounded=0;whiteSpace=wrap;html=1;fontFamily=Lucida Console;fillColor=#dae8fc;strokeColor=#6c8ebf;" vertex="1" parent="Ivxdmaws9GKIMjuXmD1E-77">
          <mxGeometry y="195.82999999999998" width="120" height="20" as="geometry" />
        </mxCell>
        <mxCell id="Ivxdmaws9GKIMjuXmD1E-45" value="" style="rounded=0;whiteSpace=wrap;html=1;" vertex="1" parent="Ivxdmaws9GKIMjuXmD1E-77">
          <mxGeometry y="185.82999999999998" width="120" height="10" as="geometry" />
        </mxCell>
        <mxCell id="Ivxdmaws9GKIMjuXmD1E-46" value="&lt;font face=&quot;Lucida Console&quot;&gt;.data.*&lt;/font&gt;" style="rounded=0;whiteSpace=wrap;html=1;fillColor=#dae8fc;strokeColor=#6c8ebf;" vertex="1" parent="Ivxdmaws9GKIMjuXmD1E-77">
          <mxGeometry y="165.82999999999998" width="120" height="20" as="geometry" />
        </mxCell>
        <mxCell id="Ivxdmaws9GKIMjuXmD1E-58" value="" style="rounded=0;whiteSpace=wrap;html=1;" vertex="1" parent="Ivxdmaws9GKIMjuXmD1E-77">
          <mxGeometry y="215.82999999999998" width="120" height="10" as="geometry" />
        </mxCell>
        <mxCell id="Ivxdmaws9GKIMjuXmD1E-60" value="" style="rounded=0;whiteSpace=wrap;html=1;" vertex="1" parent="Ivxdmaws9GKIMjuXmD1E-77">
          <mxGeometry y="155.82999999999998" width="120" height="10" as="geometry" />
        </mxCell>
        <mxCell id="Ivxdmaws9GKIMjuXmD1E-61" value="&lt;font face=&quot;Lucida Console&quot;&gt;.init.*&lt;/font&gt;" style="rounded=0;whiteSpace=wrap;html=1;fillColor=#dae8fc;strokeColor=#6c8ebf;" vertex="1" parent="Ivxdmaws9GKIMjuXmD1E-77">
          <mxGeometry y="135.82999999999998" width="120" height="20" as="geometry" />
        </mxCell>
        <mxCell id="Ivxdmaws9GKIMjuXmD1E-62" value="" style="rounded=0;whiteSpace=wrap;html=1;" vertex="1" parent="Ivxdmaws9GKIMjuXmD1E-77">
          <mxGeometry y="125.82999999999998" width="120" height="10" as="geometry" />
        </mxCell>
        <mxCell id="Ivxdmaws9GKIMjuXmD1E-63" value="&lt;font face=&quot;Lucida Console&quot;&gt;.bss.*&lt;/font&gt;" style="rounded=0;whiteSpace=wrap;html=1;fillColor=#dae8fc;strokeColor=#6c8ebf;" vertex="1" parent="Ivxdmaws9GKIMjuXmD1E-77">
          <mxGeometry y="105.82999999999998" width="120" height="20" as="geometry" />
        </mxCell>
        <mxCell id="Ivxdmaws9GKIMjuXmD1E-64" value="" style="rounded=0;whiteSpace=wrap;html=1;" vertex="1" parent="Ivxdmaws9GKIMjuXmD1E-77">
          <mxGeometry y="95.82999999999998" width="120" height="10" as="geometry" />
        </mxCell>
        <mxCell id="Ivxdmaws9GKIMjuXmD1E-79" value="/boot/System.map-*可以看到" style="text;html=1;strokeColor=none;fillColor=none;align=center;verticalAlign=middle;whiteSpace=wrap;rounded=0;fontFamily=Lucida Console;" vertex="1" parent="Ivxdmaws9GKIMjuXmD1E-77">
          <mxGeometry x="340" y="56" width="213" height="30" as="geometry" />
        </mxCell>
        <mxCell id="Ivxdmaws9GKIMjuXmD1E-80" value="modules（1G）" style="rounded=0;whiteSpace=wrap;html=1;fillColor=#d5e8d4;strokeColor=#82b366;" vertex="1" parent="Ivxdmaws9GKIMjuXmD1E-77">
          <mxGeometry y="60.81000000000003" width="120" height="34.19" as="geometry" />
        </mxCell>
        <mxCell id="Ivxdmaws9GKIMjuXmD1E-81" value="" style="endArrow=none;dashed=1;html=1;rounded=0;" edge="1" parent="Ivxdmaws9GKIMjuXmD1E-77">
          <mxGeometry width="50" height="50" relative="1" as="geometry">
            <mxPoint x="130" y="59.98000000000005" as="sourcePoint" />
            <mxPoint x="280" y="59.98000000000005" as="targetPoint" />
          </mxGeometry>
        </mxCell>
        <mxCell id="Ivxdmaws9GKIMjuXmD1E-82" value="0xffffffffff000000" style="text;html=1;strokeColor=none;fillColor=none;align=center;verticalAlign=middle;whiteSpace=wrap;rounded=0;fontFamily=Lucida Console;" vertex="1" parent="Ivxdmaws9GKIMjuXmD1E-77">
          <mxGeometry x="130" y="39.97999999999999" width="146" height="20" as="geometry" />
        </mxCell>
        <mxCell id="Ivxdmaws9GKIMjuXmD1E-83" value="" style="endArrow=none;dashed=1;html=1;rounded=0;" edge="1" parent="Ivxdmaws9GKIMjuXmD1E-77">
          <mxGeometry width="50" height="50" relative="1" as="geometry">
            <mxPoint x="130" y="95.00000000000003" as="sourcePoint" />
            <mxPoint x="280" y="95.00000000000003" as="targetPoint" />
          </mxGeometry>
        </mxCell>
        <mxCell id="Ivxdmaws9GKIMjuXmD1E-84" value="0xffffffffc0000000" style="text;html=1;strokeColor=none;fillColor=none;align=center;verticalAlign=middle;whiteSpace=wrap;rounded=0;fontFamily=Lucida Console;" vertex="1" parent="Ivxdmaws9GKIMjuXmD1E-77">
          <mxGeometry x="130" y="75.00000000000003" width="146" height="20" as="geometry" />
        </mxCell>
        <mxCell id="Ivxdmaws9GKIMjuXmD1E-87" value="" style="rounded=0;whiteSpace=wrap;html=1;" vertex="1" parent="Ivxdmaws9GKIMjuXmD1E-77">
          <mxGeometry y="40" width="120" height="19.98" as="geometry" />
        </mxCell>
        <mxCell id="Ivxdmaws9GKIMjuXmD1E-25" value="fixmap" style="rounded=0;whiteSpace=wrap;html=1;fillColor=#d5e8d4;strokeColor=#82b366;" vertex="1" parent="Ivxdmaws9GKIMjuXmD1E-77">
          <mxGeometry y="1.8500000000000227" width="120" height="40" as="geometry" />
        </mxCell>
        <mxCell id="Ivxdmaws9GKIMjuXmD1E-26" value="" style="endArrow=none;dashed=1;html=1;rounded=0;" edge="1" parent="Ivxdmaws9GKIMjuXmD1E-77">
          <mxGeometry width="50" height="50" relative="1" as="geometry">
            <mxPoint x="130" y="41.85000000000002" as="sourcePoint" />
            <mxPoint x="280" y="41.85000000000002" as="targetPoint" />
          </mxGeometry>
        </mxCell>
        <mxCell id="Ivxdmaws9GKIMjuXmD1E-27" value="0xffffffffff579000" style="text;html=1;strokeColor=none;fillColor=none;align=center;verticalAlign=middle;whiteSpace=wrap;rounded=0;fontFamily=Lucida Console;" vertex="1" parent="Ivxdmaws9GKIMjuXmD1E-77">
          <mxGeometry x="130" y="21.850000000000023" width="146" height="20" as="geometry" />
        </mxCell>
        <mxCell id="Ivxdmaws9GKIMjuXmD1E-28" value="FIXADDR_START" style="text;html=1;strokeColor=none;fillColor=none;align=center;verticalAlign=middle;whiteSpace=wrap;rounded=0;fontFamily=Lucida Console;" vertex="1" parent="Ivxdmaws9GKIMjuXmD1E-77">
          <mxGeometry x="-130" y="36.83000000000004" width="100" height="15.85" as="geometry" />
        </mxCell>
        <mxCell id="Ivxdmaws9GKIMjuXmD1E-31" value="" style="rounded=0;whiteSpace=wrap;html=1;" vertex="1" parent="Ivxdmaws9GKIMjuXmD1E-77">
          <mxGeometry y="-33.16999999999996" width="120" height="34.19" as="geometry" />
        </mxCell>
        <mxCell id="Ivxdmaws9GKIMjuXmD1E-32" value="" style="endArrow=none;dashed=1;html=1;rounded=0;" edge="1" parent="Ivxdmaws9GKIMjuXmD1E-77">
          <mxGeometry width="50" height="50" relative="1" as="geometry">
            <mxPoint x="130" y="-33.99999999999994" as="sourcePoint" />
            <mxPoint x="280" y="-33.99999999999994" as="targetPoint" />
          </mxGeometry>
        </mxCell>
        <mxCell id="Ivxdmaws9GKIMjuXmD1E-33" value="0xffffffffffffffff" style="text;html=1;strokeColor=none;fillColor=none;align=center;verticalAlign=middle;whiteSpace=wrap;rounded=0;fontFamily=Lucida Console;" vertex="1" parent="Ivxdmaws9GKIMjuXmD1E-77">
          <mxGeometry x="130" y="-54" width="146" height="20" as="geometry" />
        </mxCell>
        <mxCell id="Ivxdmaws9GKIMjuXmD1E-38" value="" style="endArrow=none;dashed=1;html=1;rounded=0;" edge="1" parent="Ivxdmaws9GKIMjuXmD1E-77">
          <mxGeometry width="50" height="50" relative="1" as="geometry">
            <mxPoint x="130" y="1.0200000000000387" as="sourcePoint" />
            <mxPoint x="280" y="1.0200000000000387" as="targetPoint" />
          </mxGeometry>
        </mxCell>
        <mxCell id="Ivxdmaws9GKIMjuXmD1E-39" value="0xffffffffff7ff000" style="text;html=1;strokeColor=none;fillColor=none;align=center;verticalAlign=middle;whiteSpace=wrap;rounded=0;fontFamily=Lucida Console;" vertex="1" parent="Ivxdmaws9GKIMjuXmD1E-77">
          <mxGeometry x="130" y="-18.97999999999996" width="146" height="20" as="geometry" />
        </mxCell>
        <mxCell id="Ivxdmaws9GKIMjuXmD1E-40" value="FIXADDR_TOP" style="text;html=1;strokeColor=none;fillColor=none;align=center;verticalAlign=middle;whiteSpace=wrap;rounded=0;fontFamily=Lucida Console;" vertex="1" parent="Ivxdmaws9GKIMjuXmD1E-77">
          <mxGeometry x="-120" y="-3.169999999999959" width="90" height="15.85" as="geometry" />
        </mxCell>
        <mxCell id="Ivxdmaws9GKIMjuXmD1E-89" value="VSYSCALL_ADDR&amp;nbsp;0xffffffffff600000" style="text;html=1;strokeColor=none;fillColor=none;align=center;verticalAlign=middle;whiteSpace=wrap;rounded=0;fontFamily=Lucida Console;" vertex="1" parent="Ivxdmaws9GKIMjuXmD1E-77">
          <mxGeometry x="330" y="6" width="240" height="15.85" as="geometry" />
        </mxCell>
        <mxCell id="Ivxdmaws9GKIMjuXmD1E-90" value="" style="endArrow=classic;html=1;rounded=0;fontFamily=Lucida Console;exitX=1;exitY=0.5;exitDx=0;exitDy=0;entryX=0;entryY=0.5;entryDx=0;entryDy=0;dashed=1;" edge="1" parent="Ivxdmaws9GKIMjuXmD1E-77" source="Ivxdmaws9GKIMjuXmD1E-25" target="Ivxdmaws9GKIMjuXmD1E-89">
          <mxGeometry width="50" height="50" relative="1" as="geometry">
            <mxPoint x="130" y="196" as="sourcePoint" />
            <mxPoint x="340" y="187" as="targetPoint" />
          </mxGeometry>
        </mxCell>
        <mxCell id="Ivxdmaws9GKIMjuXmD1E-75" value="" style="endArrow=classic;html=1;rounded=0;fontFamily=Lucida Console;exitX=1;exitY=1;exitDx=0;exitDy=0;entryX=0;entryY=0.5;entryDx=0;entryDy=0;dashed=1;" edge="1" parent="1" source="Ivxdmaws9GKIMjuXmD1E-41" target="Ivxdmaws9GKIMjuXmD1E-48">
          <mxGeometry width="50" height="50" relative="1" as="geometry">
            <mxPoint x="330" y="-30" as="sourcePoint" />
            <mxPoint x="490" y="14" as="targetPoint" />
          </mxGeometry>
        </mxCell>
        <mxCell id="Ivxdmaws9GKIMjuXmD1E-74" value="" style="endArrow=classic;html=1;rounded=0;fontFamily=Lucida Console;exitX=1;exitY=0;exitDx=0;exitDy=0;entryX=0;entryY=0.5;entryDx=0;entryDy=0;dashed=1;" edge="1" parent="1" source="Ivxdmaws9GKIMjuXmD1E-41" target="Ivxdmaws9GKIMjuXmD1E-49">
          <mxGeometry width="50" height="50" relative="1" as="geometry">
            <mxPoint x="330" y="-40" as="sourcePoint" />
            <mxPoint x="430" y="-18" as="targetPoint" />
          </mxGeometry>
        </mxCell>
        <mxCell id="Ivxdmaws9GKIMjuXmD1E-73" value="" style="endArrow=classic;html=1;rounded=0;fontFamily=Lucida Console;exitX=1;exitY=1;exitDx=0;exitDy=0;entryX=0;entryY=0.5;entryDx=0;entryDy=0;dashed=1;" edge="1" parent="1" source="Ivxdmaws9GKIMjuXmD1E-44" target="Ivxdmaws9GKIMjuXmD1E-50">
          <mxGeometry width="50" height="50" relative="1" as="geometry">
            <mxPoint x="330" y="-60" as="sourcePoint" />
            <mxPoint x="450" y="-51" as="targetPoint" />
          </mxGeometry>
        </mxCell>
        <mxCell id="Ivxdmaws9GKIMjuXmD1E-72" value="" style="endArrow=classic;html=1;rounded=0;fontFamily=Lucida Console;exitX=1;exitY=0;exitDx=0;exitDy=0;entryX=0;entryY=0.5;entryDx=0;entryDy=0;dashed=1;" edge="1" parent="1" source="Ivxdmaws9GKIMjuXmD1E-44" target="Ivxdmaws9GKIMjuXmD1E-51">
          <mxGeometry width="50" height="50" relative="1" as="geometry">
            <mxPoint x="330" y="-70" as="sourcePoint" />
            <mxPoint x="460" y="-83" as="targetPoint" />
          </mxGeometry>
        </mxCell>
        <mxCell id="Ivxdmaws9GKIMjuXmD1E-71" value="" style="endArrow=classic;html=1;rounded=0;fontFamily=Lucida Console;exitX=1;exitY=1;exitDx=0;exitDy=0;entryX=0;entryY=0.5;entryDx=0;entryDy=0;dashed=1;" edge="1" parent="1" source="Ivxdmaws9GKIMjuXmD1E-46" target="Ivxdmaws9GKIMjuXmD1E-52">
          <mxGeometry width="50" height="50" relative="1" as="geometry">
            <mxPoint x="330" y="-90" as="sourcePoint" />
            <mxPoint x="490" y="-115" as="targetPoint" />
          </mxGeometry>
        </mxCell>
        <mxCell id="Ivxdmaws9GKIMjuXmD1E-70" value="" style="endArrow=classic;html=1;rounded=0;fontFamily=Lucida Console;exitX=1;exitY=0;exitDx=0;exitDy=0;entryX=0;entryY=0.5;entryDx=0;entryDy=0;dashed=1;" edge="1" parent="1" source="Ivxdmaws9GKIMjuXmD1E-46" target="Ivxdmaws9GKIMjuXmD1E-53">
          <mxGeometry width="50" height="50" relative="1" as="geometry">
            <mxPoint x="330" y="-100" as="sourcePoint" />
            <mxPoint x="450" y="-147" as="targetPoint" />
          </mxGeometry>
        </mxCell>
        <mxCell id="Ivxdmaws9GKIMjuXmD1E-69" value="" style="endArrow=classic;html=1;rounded=0;fontFamily=Lucida Console;exitX=1;exitY=1;exitDx=0;exitDy=0;entryX=0;entryY=0.5;entryDx=0;entryDy=0;dashed=1;" edge="1" parent="1" source="Ivxdmaws9GKIMjuXmD1E-61" target="Ivxdmaws9GKIMjuXmD1E-54">
          <mxGeometry width="50" height="50" relative="1" as="geometry">
            <mxPoint x="330" y="-120" as="sourcePoint" />
            <mxPoint x="460" y="-180" as="targetPoint" />
          </mxGeometry>
        </mxCell>
        <mxCell id="Ivxdmaws9GKIMjuXmD1E-68" value="" style="endArrow=classic;html=1;rounded=0;fontFamily=Lucida Console;exitX=1;exitY=0;exitDx=0;exitDy=0;entryX=0;entryY=0.5;entryDx=0;entryDy=0;dashed=1;" edge="1" parent="1" source="Ivxdmaws9GKIMjuXmD1E-61" target="Ivxdmaws9GKIMjuXmD1E-55">
          <mxGeometry width="50" height="50" relative="1" as="geometry">
            <mxPoint x="330" y="-130" as="sourcePoint" />
            <mxPoint x="460" y="-212" as="targetPoint" />
          </mxGeometry>
        </mxCell>
        <mxCell id="Ivxdmaws9GKIMjuXmD1E-67" value="" style="endArrow=classic;html=1;rounded=0;fontFamily=Lucida Console;exitX=1;exitY=1;exitDx=0;exitDy=0;entryX=0;entryY=0.5;entryDx=0;entryDy=0;dashed=1;" edge="1" parent="1" source="Ivxdmaws9GKIMjuXmD1E-63" target="Ivxdmaws9GKIMjuXmD1E-56">
          <mxGeometry width="50" height="50" relative="1" as="geometry">
            <mxPoint x="330" y="-150" as="sourcePoint" />
            <mxPoint x="465" y="-241" as="targetPoint" />
          </mxGeometry>
        </mxCell>
        <mxCell id="Ivxdmaws9GKIMjuXmD1E-65" value="" style="endArrow=classic;html=1;rounded=0;fontFamily=Lucida Console;exitX=1;exitY=0;exitDx=0;exitDy=0;entryX=0;entryY=0.5;entryDx=0;entryDy=0;dashed=1;" edge="1" parent="1" source="Ivxdmaws9GKIMjuXmD1E-63" target="Ivxdmaws9GKIMjuXmD1E-57">
          <mxGeometry width="50" height="50" relative="1" as="geometry">
            <mxPoint x="320" y="-156" as="sourcePoint" />
            <mxPoint x="370" y="-206" as="targetPoint" />
          </mxGeometry>
        </mxCell>
        <mxCell id="Ivxdmaws9GKIMjuXmD1E-78" value="" style="group" vertex="1" connectable="0" parent="1">
          <mxGeometry x="500" y="-170" width="250" height="150" as="geometry" />
        </mxCell>
        <mxCell id="Ivxdmaws9GKIMjuXmD1E-48" value="_stext 0xffffffff81000000" style="text;html=1;strokeColor=none;fillColor=none;align=center;verticalAlign=middle;whiteSpace=wrap;rounded=0;fontFamily=Lucida Console;" vertex="1" parent="Ivxdmaws9GKIMjuXmD1E-78">
          <mxGeometry x="60" y="135.9375" width="190" height="14.0625" as="geometry" />
        </mxCell>
        <mxCell id="Ivxdmaws9GKIMjuXmD1E-49" value="_etext 0xffffffff82002108" style="text;html=1;strokeColor=none;fillColor=none;align=center;verticalAlign=middle;whiteSpace=wrap;rounded=0;fontFamily=Lucida Console;" vertex="1" parent="Ivxdmaws9GKIMjuXmD1E-78">
          <mxGeometry x="60" y="119.53125" width="190" height="14.0625" as="geometry" />
        </mxCell>
        <mxCell id="Ivxdmaws9GKIMjuXmD1E-50" value="__start_rodata 0xffffffff82200000" style="text;html=1;strokeColor=none;fillColor=none;align=center;verticalAlign=middle;whiteSpace=wrap;rounded=0;fontFamily=Lucida Console;" vertex="1" parent="Ivxdmaws9GKIMjuXmD1E-78">
          <mxGeometry y="104.53125" width="250" height="14.0625" as="geometry" />
        </mxCell>
        <mxCell id="Ivxdmaws9GKIMjuXmD1E-51" value="__end_rodata 0xffffffff82c86000" style="text;html=1;strokeColor=none;fillColor=none;align=center;verticalAlign=middle;whiteSpace=wrap;rounded=0;fontFamily=Lucida Console;" vertex="1" parent="Ivxdmaws9GKIMjuXmD1E-78">
          <mxGeometry x="20" y="89.0625" width="230" height="14.0625" as="geometry" />
        </mxCell>
        <mxCell id="Ivxdmaws9GKIMjuXmD1E-52" value="&amp;nbsp; &amp;nbsp; _sdata 0xffffffff82e00000" style="text;html=1;strokeColor=none;fillColor=none;align=center;verticalAlign=middle;whiteSpace=wrap;rounded=0;fontFamily=Lucida Console;" vertex="1" parent="Ivxdmaws9GKIMjuXmD1E-78">
          <mxGeometry x="30" y="74.0625" width="220" height="14.0625" as="geometry" />
        </mxCell>
        <mxCell id="Ivxdmaws9GKIMjuXmD1E-53" value="&amp;nbsp; &amp;nbsp; _edata 0xffffffff83119e80" style="text;html=1;strokeColor=none;fillColor=none;align=center;verticalAlign=middle;whiteSpace=wrap;rounded=0;fontFamily=Lucida Console;" vertex="1" parent="Ivxdmaws9GKIMjuXmD1E-78">
          <mxGeometry x="30" y="59.062499999999986" width="220" height="14.0625" as="geometry" />
        </mxCell>
        <mxCell id="Ivxdmaws9GKIMjuXmD1E-54" value="__init_begin 0xffffffff83135000" style="text;html=1;strokeColor=none;fillColor=none;align=center;verticalAlign=middle;whiteSpace=wrap;rounded=0;fontFamily=Lucida Console;" vertex="1" parent="Ivxdmaws9GKIMjuXmD1E-78">
          <mxGeometry x="20" y="44.0625" width="230" height="14.0625" as="geometry" />
        </mxCell>
        <mxCell id="Ivxdmaws9GKIMjuXmD1E-55" value="__init_end 0xffffffff83436000" style="text;html=1;strokeColor=none;fillColor=none;align=center;verticalAlign=middle;whiteSpace=wrap;rounded=0;fontFamily=Lucida Console;" vertex="1" parent="Ivxdmaws9GKIMjuXmD1E-78">
          <mxGeometry x="30" y="28.593749999999993" width="220" height="14.0625" as="geometry" />
        </mxCell>
        <mxCell id="Ivxdmaws9GKIMjuXmD1E-56" value="__bss_start 0xffffffff83441000" style="text;html=1;strokeColor=none;fillColor=none;align=center;verticalAlign=middle;whiteSpace=wrap;rounded=0;fontFamily=Lucida Console;" vertex="1" parent="Ivxdmaws9GKIMjuXmD1E-78">
          <mxGeometry x="30" y="13.593749999999996" width="220" height="14.0625" as="geometry" />
        </mxCell>
        <mxCell id="Ivxdmaws9GKIMjuXmD1E-57" value="__bss_stop 0xffffffff83a00000" style="text;html=1;strokeColor=none;fillColor=none;align=center;verticalAlign=middle;whiteSpace=wrap;rounded=0;fontFamily=Lucida Console;" vertex="1" parent="Ivxdmaws9GKIMjuXmD1E-78">
          <mxGeometry x="35" width="215" height="14.0625" as="geometry" />
        </mxCell>
        <mxCell id="Ivxdmaws9GKIMjuXmD1E-85" value="MODULES_VADDR" style="text;html=1;strokeColor=none;fillColor=none;align=center;verticalAlign=middle;whiteSpace=wrap;rounded=0;fontFamily=Lucida Console;" vertex="1" parent="1">
          <mxGeometry x="62.5" y="-180" width="115" height="19.17" as="geometry" />
        </mxCell>
        <mxCell id="Ivxdmaws9GKIMjuXmD1E-86" value="MODULES_END" style="text;html=1;strokeColor=none;fillColor=none;align=center;verticalAlign=middle;whiteSpace=wrap;rounded=0;fontFamily=Lucida Console;" vertex="1" parent="1">
          <mxGeometry x="62.5" y="-210" width="115" height="19.17" as="geometry" />
        </mxCell>
      </root>
    </mxGraphModel>
  </diagram>
</mxfile>
